<?xml version="1.0" encoding="utf-8" ?><svg xmlns="http://www.w3.org/2000/svg" xmlns:xlink="http://www.w3.org/1999/xlink" width="1024" height="920" viewBox="0 0 1024 920"><path fill="#ED0018" transform="scale(0.610979 0.61089)" d="M937.2 409.99L1061.15 409.534C1084.21 409.446 1119.37 408.399 1141.71 410.872C1133.58 422.152 1114.39 442.469 1104.33 453.766L1039.1 526.941L1040.98 527.317C1108.44 527.919 1180.16 525.592 1246.86 528.033C1240.42 540.084 1221.99 558.566 1212.07 569.677L1161.97 626.033C1158.55 629.836 1146.09 641.905 1144.59 645.073L1144.03 645.842C1153.66 655.578 1162.52 666.211 1171.57 676.516L1218.32 729.032C1227.81 739.657 1238.03 751.772 1247.96 761.711C1249.74 765.378 1243.88 771.162 1241.37 773.967C1202.05 817.996 1162.57 861.89 1123.16 905.841L1072.59 962.355C1065.69 970.134 1043.02 998.579 1034.71 1000.8L1020.86 1000.62C957.064 1001.24 891.86 1000.79 828.002 1000.52C838.129 1013.8 848.684 1023.64 859.704 1036.04C876.344 1054.77 893.467 1073.3 909.372 1092.63C914.463 1098.82 926.435 1109.49 928.761 1116.48C922.148 1119.79 740.987 1119.34 725.496 1117.02C734.552 1104.94 746.522 1092.25 756.685 1080.9L796.352 1036.41C804.973 1026.91 820.984 1011.07 826.699 1000.47C801.752 999.528 773.391 1000.24 748.221 1000.31L617.472 1000.16C608.911 992.837 593.026 973.206 584.66 963.891C559.911 936.508 535.301 909 510.83 881.369C523.506 867.399 536.748 855.206 549.89 840.181L587.607 796.785C596.193 786.932 608.801 772.389 618.428 763.858L619.075 763.791C622.928 756.636 647.778 729.535 654.82 721.72C677.327 696.741 699.544 669.86 723.272 646.235C710.846 628.345 682.835 598.073 668.27 581.15C657.891 569.09 630.423 537.612 619.27 527.806C605.905 516.426 587.84 493.555 575.52 479.587C554.851 456.154 533.591 433.337 512.902 410.042L724.267 410.05C794.687 410.036 866.946 410.898 937.2 409.99Z"/><path fill="#ED0018" transform="scale(0.610979 0.61089)" d="M723.272 646.235L724.317 646.802C744.065 670.091 764.658 693.048 784.982 715.859C797.343 729.732 813.985 750.291 827.72 762.132L828.442 762.297C831.021 763.29 831.788 763.539 834.472 764.16L833.28 765.643C834.887 774.657 850.907 779.388 855.703 796.542L861.133 802.957C876.245 810.929 882.832 823.293 893.88 834.707C909.236 850.57 922.18 866.453 935.622 883.887C940.671 890.434 951.566 896.791 956.795 903.715C964.615 914.744 964.878 920.062 977.877 927.109C980.127 928.329 988.888 943.474 991.637 946.009C1002.25 958.655 1028.93 981.451 1033.63 996.562C1034.07 997.954 1034.43 999.371 1034.71 1000.8L1020.86 1000.62C957.064 1001.24 891.86 1000.79 828.002 1000.52C838.129 1013.8 848.684 1023.64 859.704 1036.04C876.344 1054.77 893.467 1073.3 909.372 1092.63C914.463 1098.82 926.435 1109.49 928.761 1116.48C922.148 1119.79 740.987 1119.34 725.496 1117.02C734.552 1104.94 746.522 1092.25 756.685 1080.9L796.352 1036.41C804.973 1026.91 820.984 1011.07 826.699 1000.47C801.752 999.528 773.391 1000.24 748.221 1000.31L617.472 1000.16C608.911 992.837 593.026 973.206 584.66 963.891C559.911 936.508 535.301 909 510.83 881.369C523.506 867.399 536.748 855.206 549.89 840.181L587.607 796.785C596.193 786.932 608.801 772.389 618.428 763.858L619.075 763.791C622.928 756.636 647.778 729.535 654.82 721.72C677.327 696.741 699.544 669.86 723.272 646.235Z"/><path fill="#EC0050" transform="scale(0.610979 0.61089)" d="M827.72 762.132L828.442 762.297C831.021 763.29 831.788 763.539 834.472 764.16L833.28 765.643C834.887 774.657 850.907 779.388 855.703 796.542L861.133 802.957C876.245 810.929 882.832 823.293 893.88 834.707C909.236 850.57 922.18 866.453 935.622 883.887C940.671 890.434 951.566 896.791 956.795 903.715C964.615 914.744 964.878 920.062 977.877 927.109C980.127 928.329 988.888 943.474 991.637 946.009C1002.25 958.655 1028.93 981.451 1033.63 996.562C1034.07 997.954 1034.43 999.371 1034.71 1000.8L1020.86 1000.62C957.064 1001.24 891.86 1000.79 828.002 1000.52C838.129 1013.8 848.684 1023.64 859.704 1036.04C876.344 1054.77 893.467 1073.3 909.372 1092.63C914.463 1098.82 926.435 1109.49 928.761 1116.48C922.148 1119.79 740.987 1119.34 725.496 1117.02C734.552 1104.94 746.522 1092.25 756.685 1080.9L796.352 1036.41C804.973 1026.91 820.984 1011.07 826.699 1000.47C817.78 987.586 806.286 975.401 795.914 963.528C772.163 936.339 747.595 910.57 724.519 882.759C733.284 870.745 744.073 860.223 753.896 849.105C766.966 834.31 779.817 819.248 792.727 804.305C800.396 795.428 809.87 785.865 816.899 776.741C819.08 772.478 822.817 769.88 821.011 765.158L818.131 764.068C822.058 763.735 824.383 764.18 827.72 762.132Z"/><path fill="#EB0034" transform="scale(0.610979 0.61089)" d="M861.133 802.957C876.245 810.929 882.832 823.293 893.88 834.707C909.236 850.57 922.18 866.453 935.622 883.887C940.671 890.434 951.566 896.791 956.795 903.715C964.615 914.744 964.878 920.062 977.877 927.109C980.127 928.329 988.888 943.474 991.637 946.009C1002.25 958.655 1028.93 981.451 1033.63 996.562C1034.07 997.954 1034.43 999.371 1034.71 1000.8L1020.86 1000.62C1025.09 999.765 1027.6 1001.42 1029.6 997.246C1029.53 989.268 995.507 955.588 988.05 947.235L901.183 849.661C892.416 839.865 867.249 812.892 861.133 802.957Z"/><path fill="#EB0034" transform="scale(0.610979 0.61089)" d="M827.72 762.132L828.442 762.297C831.021 763.29 831.788 763.539 834.472 764.16L833.28 765.643C834.887 774.657 850.907 779.388 855.703 796.542C846.486 788.788 838.708 777.046 827.234 767.228C823.41 771.151 821.222 773.433 816.899 776.741C819.08 772.478 822.817 769.88 821.011 765.158L818.131 764.068C822.058 763.735 824.383 764.18 827.72 762.132Z"/><path fill="#A000EA" transform="scale(0.610979 0.61089)" d="M723.272 646.235L724.317 646.802C744.065 670.091 764.658 693.048 784.982 715.859C797.343 729.732 813.985 750.291 827.72 762.132C824.383 764.18 822.058 763.735 818.131 764.068C804.939 764.706 791.127 764.074 777.83 764.036L706.565 764.144L653.96 764.458C643.804 764.523 628.854 764.984 619.075 763.791C622.928 756.636 647.778 729.535 654.82 721.72C677.327 696.741 699.544 669.86 723.272 646.235Z"/><path fill="#EC0050" transform="scale(0.610979 0.61089)" d="M512.902 410.042L724.267 410.05C743.911 436.745 770.255 462.787 792.275 487.97C801.183 498.158 817.965 520.282 827.642 527.926C846.58 546.068 868.861 573.207 886.759 593.152C898.132 605.826 923.185 632.282 931.926 645.016C922.088 659.618 911.253 670.617 899.534 683.614L858.331 729.574C853.297 735.191 832.108 759.479 828.442 762.297L827.72 762.132C813.985 750.291 797.343 729.732 784.982 715.859C764.658 693.048 744.065 670.091 724.317 646.802L723.272 646.235C710.846 628.345 682.835 598.073 668.27 581.15C657.891 569.09 630.423 537.612 619.27 527.806C605.905 516.426 587.84 493.555 575.52 479.587C554.851 456.154 533.591 433.337 512.902 410.042Z"/><path fill="#ED0018" transform="scale(0.610979 0.61089)" d="M931.926 645.016C922.088 659.618 911.253 670.617 899.534 683.614L858.331 729.574C853.297 735.191 832.108 759.479 828.442 762.297L827.72 762.132C813.985 750.291 797.343 729.732 784.982 715.859C764.658 693.048 744.065 670.091 724.317 646.802C729.359 644.254 775.454 646.11 785.141 645.671C834.07 646.083 883.003 645.865 931.926 645.016Z"/><path fill="#EE00AB" transform="scale(0.610979 0.61089)" d="M724.704 645.08L827.642 527.926C846.58 546.068 868.861 573.207 886.759 593.152C898.132 605.826 923.185 632.282 931.926 645.016C883.003 645.865 834.07 646.083 785.141 645.671C773.77 643.894 737.424 644.962 724.704 645.08Z"/><path fill="#EC0050" transform="scale(0.610979 0.61089)" d="M1040.98 527.317C1108.44 527.919 1180.16 525.592 1246.86 528.033C1240.42 540.084 1221.99 558.566 1212.07 569.677L1161.97 626.033C1158.55 629.836 1146.09 641.905 1144.59 645.073C1129.38 644.531 1108.84 646.021 1092.56 645.884C1040.68 645.448 988.117 646.348 936.254 644.754C946.674 633.379 1038.76 528.215 1040.98 527.317Z"/><path fill="#EE00AB" transform="scale(0.610979 0.61089)" d="M931.926 645.016C954.895 668.723 976.851 694.232 998.813 718.966C1010.35 731.957 1028.32 750.562 1038.19 764.16C999.912 764.648 962.128 763.842 924.037 764.089L860.154 763.956C852.124 763.905 842.096 764.636 834.472 764.16C831.788 763.539 831.021 763.29 828.442 762.297C832.108 759.479 853.297 735.191 858.331 729.574L899.534 683.614C911.253 670.617 922.088 659.618 931.926 645.016Z"/><path fill="#EC0050" transform="scale(0.610979 0.61089)" d="M1144.03 645.842C1153.66 655.578 1162.52 666.211 1171.57 676.516L1218.32 729.032C1227.81 739.657 1238.03 751.772 1247.96 761.711C1238.05 766.184 1065.79 765.075 1043.65 762.753C1052.68 747.405 1065.93 734.415 1077.62 721.222C1099.43 696.616 1124.85 672.387 1144.03 645.842Z"/><path fill="#EE00AB" transform="scale(0.610979 0.61089)" d="M937.2 409.99L1061.15 409.534C1084.21 409.446 1119.37 408.399 1141.71 410.872C1133.58 422.152 1114.39 442.469 1104.33 453.766L1039.1 526.941C1032.28 518.162 1020.89 506.146 1013.21 497.569L966.157 444.987C956.913 434.631 944.167 421.396 937.2 409.99Z"/><path fill="#EB0034" transform="scale(0.610979 0.61089)" d="M619.27 527.806C630.423 537.612 657.891 569.09 668.27 581.15C682.835 598.073 710.846 628.345 723.272 646.235C699.544 669.86 677.327 696.741 654.82 721.72C647.778 729.535 622.928 756.636 619.075 763.791L618.428 763.858C600.316 762.412 570.026 763.555 550.638 763.591C502.865 763.93 455.091 763.718 407.323 762.954C434.988 732.559 461.625 701.357 489.141 670.838C496.694 662.462 504.306 654.107 512.391 646.238C505.82 637.64 495.357 626.29 487.947 618.002L438.807 564.034C428.094 552.241 417.642 541.069 408.37 528.065C421.036 527.34 434.403 527.006 447.062 527.388C504.208 529.113 562.237 526.345 619.27 527.806Z"/><path fill="#ED0018" transform="scale(0.610979 0.61089)" d="M828.994 289.795C897.262 288.243 971.068 289.485 1039.62 289.764C1022.88 309.19 999.924 331.195 984.92 351.445C966.955 371.099 952.642 387.894 933.19 406.723C914.469 388.995 897.967 368.217 880.909 348.779C864.564 330.154 843.043 309.826 828.994 289.795Z"/></svg>